<?xml version="1.0" encoding="utf-8"?>
<!-- Generator: Adobe Illustrator 14.0.0, SVG Export Plug-In . SVG Version: 6.00 Build 43363)  -->
<!DOCTYPE svg PUBLIC "-//W3C//DTD SVG 1.1//EN" "http://www.w3.org/Graphics/SVG/1.1/DTD/svg11.dtd">
<svg version="1.1" id="Layer_1" xmlns="http://www.w3.org/2000/svg" xmlns:xlink="http://www.w3.org/1999/xlink" x="0px" y="0px"
	 width="308.748px" height="152.014px" viewBox="0.695 2.352 308.748 152.014" enable-background="new 0.695 2.352 308.748 152.014"
	 xml:space="preserve">
<path fill="#FFFFFF" stroke="#BBC4CA" stroke-width="4.3659" d="M150.529,78.358c0-40.771-33.057-73.822-73.824-73.822
	c-40.771,0-73.826,33.052-73.826,73.822c0,40.773,33.055,73.826,73.826,73.826C117.475,152.184,150.529,119.132,150.529,78.358z"/>
<g>
	<path d="M140.141,60.458h-25.888c-6.8,0.781-12.231,6.145-13.103,12.923c2.209-1.446,4.791-2.225,7.492-2.225
		c3.666,0,7.107,1.43,9.695,4.026c2.594,2.583,4.021,6.025,4.021,9.691c0.005,3.666-1.424,7.109-4.019,9.701
		c-2.592,2.594-6.036,4.021-9.698,4.021c-2.746,0-5.367-0.8-7.602-2.293v17.375H77.255V97.869v-6.601
		c-6.155,13.354-19.644,22.635-35.243,22.635H20.894l1.593,2.195c12.438,17.142,32.48,27.373,53.613,27.373
		c36.511,0,66.216-29.705,66.216-66.219C142.316,71.6,141.577,65.956,140.141,60.458z"/>
</g>
<linearGradient id="SVGID_1_" gradientUnits="userSpaceOnUse" x1="264.1809" y1="-838.9675" x2="377.2505" y2="-797.8135" gradientTransform="matrix(1 0 0 -1 -250.7197 -753.4858)">
	<stop  offset="0" style="stop-color:#005A8A"/>
	<stop  offset="1" style="stop-color:#008FD5"/>
</linearGradient>
<path fill="url(#SVGID_1_)" d="M123.727,36.622c-11.459-13.365-28.455-21.845-47.438-21.845c-18.856,0-35.75,8.368-47.208,21.578
	H42.2c16.344,0,30.367,10.175,36.076,24.522c-0.075,0.896-0.153,1.668-0.153,1.668s-0.37-0.192-0.646,0.124
	c-0.27,0.271,0.016,1.238,0.016,1.238s-0.34,0.011-0.916-0.005c-0.583,0.037-3.638-0.299-6.994-0.521c0,0-0.006-0.002-0.009,0
	c-3.396-0.271-5.029,1.028-8.062,1.879c-1.643,0.436-4.69,1.245-6.61,1.71c-1.761-2.663-4.347-4.732-7.404-5.824
	c-1.474-0.56-3.058-0.895-4.707-0.959l-0.59,0.002h-26.01c-1.54,5.428-2.38,11.146-2.38,17.063c0,4.391,0.457,8.674,1.318,12.809
	h27.72c1.077-0.045,2.126-0.211,3.135-0.474c6.524-1.567,11.377-7.438,11.377-14.445c0-0.464-0.231-2.132-0.061-2.177
	c1.729-0.448,7.338-1.727,7.338-1.727s-2.418,8.396-4.566,10.405c-2.085,1.953-7.988,6.797-7.104,12.571
	c0.074,0.112,1.051,0.362,1.051,0.362s-0.024,0.241,0.147,1.297c0.183,1.055,1.505,3.33,1.505,3.33s-2.022,1.614-2.582,2.395
	c-0.571,0.824-0.578,2.203-1.988,4.168c-1.377,1.906-4.199,4.575-4.199,4.575c16.232-2.091,22.205-10.524,22.705-12.397
	c0.499-1.872,6.514-10.502,8.008-11.866c1.445-1.369,3.047-3.56,3.047-3.56s0.222,1.517,0.449,2.566
	c0.271,1.063,0.953,3.803,1.16,5.062c0.244,1.31,1.349,1.431,1.349,1.431s0.334,0.922,0.604,2.084
	c0.268,1.108,0.896,2.02,1.495,2.729c0.609,0.648,2.291,2.562,2.845,3.267c0.562,0.647,1.332,2.018,1.332,2.018
	s-0.009,1.031,0.435,1.426c0.389,0.438,1.013,0.013,1.013,0.013s0.354,0.288,0.785,0.776c0.438,0.441,0.84,0.732,0.881,1.281
	c0.044,0.544-0.273,1.25-0.988,1.563c-0.711,0.369-0.604,1.166-0.604,1.166L91.79,108l0.447-0.148l0.043,0.491l0.373,0.146
	l0.643-0.575l0.461,0.2c0,0,0.875-0.939,1.018-2.309c0.188-1.306,0.056-2.801-0.051-3.209c-0.055-0.396-0.521-0.547-0.521-0.547
	s-0.204-0.812-0.999-1.492c-0.807-0.629-0.896-1.576-1.484-2.869c-0.59-1.301-1.822-5.185-2.043-5.847
	c-0.223-0.659-1.064-1.834-1.064-1.834l0.272-0.271c0,0-0.303-0.815-0.577-2.777c-0.274-1.993-0.498-7.24-0.547-9.069
	c-0.1-1.838-2.83-6.573-3.188-7.3c-0.312-0.771-0.809-2.005-0.809-2.005l0.303-0.562c0,0,0.231,0.124,0.901,0.099
	c0.628,0.018,0.724-0.412,0.913-0.882c0.148-0.477,0.678-0.867,0.678-0.867l0.043-0.388l0.301-0.165c0,0,0.121-0.188,0.517-0.731
	c0.442-0.589,0.831-1.485,0.886-1.976c0.051-0.48,0.217-0.714,0.575-0.918c0.405-0.154,0.703-0.715,0.772-1.396
	c0.063-0.633-0.015-2.567-0.195-3.615c-0.178-1.104-1.446-2.771-3.502-3.438c-0.613-0.215-1.141-0.354-1.635-0.432
	c6.021-8.699,15.505-14.828,26.445-16.359c0.512-0.072,1.024-0.139,1.543-0.189l0.008-0.144h2.078
	c0.588-0.027,1.172-0.045,1.765-0.045h3.123v0.045L123.727,36.622L123.727,36.622z M108.926,75.504c-5.303,0-9.6,4.298-9.6,9.6
	c0,5.306,4.297,9.604,9.6,9.604c5.304,0,9.603-4.298,9.603-9.604C118.527,79.802,114.229,75.504,108.926,75.504z"/>
<g>
	<path fill="#008FD5" d="M184.341,58.098l-7.146-9.374v9.865c0,0.428-0.365,0.771-0.814,0.771h-2.546
		c-0.448,0-0.813-0.342-0.813-0.771V46.519l-1.177-1.625c-0.171-0.236-0.193-0.536-0.063-0.77c0.127-0.279,0.427-0.45,0.727-0.45
		l4.259,0.042c1.134,0.107,1.99,0.536,2.568,1.327l7.104,9.309v-7.789l-1.198-1.647c-0.148-0.236-0.172-0.535-0.043-0.771
		c0.13-0.278,0.406-0.449,0.729-0.449l3.873-0.021c0.449,0,0.834,0.362,0.834,0.791v12.476c0,1.626-1.155,2.589-3.101,2.589
		C186.545,59.531,185.281,59.359,184.341,58.098z"/>
	<path fill="#008FD5" d="M196.207,59.359c-0.772,0-1.584,0-2.292-0.577c-0.833-0.664-0.833-1.647-0.833-2.119V46.519l-1.177-1.625
		c-0.172-0.236-0.195-0.536-0.064-0.77c0.128-0.279,0.429-0.45,0.729-0.45h13.031c0.278,0,0.534,0.127,0.684,0.342l1.22,1.668
		c0.151,0.214,0.194,0.513,0.065,0.771c-0.15,0.277-0.429,0.449-0.75,0.449h-8.794c-0.128,0-0.448,0-0.577,0.106
		c-0.064,0.043-0.086,0.087-0.086,0.3v2.44h8.003c0.256,0,0.515,0.127,0.663,0.342l1.22,1.668c0.171,0.215,0.192,0.514,0.063,0.771
		c-0.127,0.278-0.427,0.429-0.748,0.429h-9.202v2.932c0,0.085,0.042,0.149,0.042,0.17c0.107,0.042,0.365,0.086,0.813,0.086h7.489
		c0.278,0,0.515,0.106,0.685,0.32l1.199,1.669c0.171,0.235,0.193,0.536,0.065,0.792c-0.131,0.257-0.408,0.428-0.729,0.428
		L196.207,59.359L196.207,59.359z"/>
	<path fill="#008FD5" d="M222.514,59.359c-0.256,0-0.491-0.107-0.641-0.299l-4.153-4.9l-4.149,4.9
		c-0.15,0.192-0.385,0.299-0.644,0.299h-3.104c-0.32,0-0.619-0.192-0.747-0.47c-0.127-0.279-0.063-0.579,0.128-0.814l5.971-6.654
		l-5.778-6.463c-0.193-0.235-0.235-0.535-0.129-0.812c0.129-0.278,0.43-0.47,0.77-0.47h3.082c0.256,0,0.492,0.106,0.643,0.299
		l3.957,4.708l1.948-2.311l-1.069-1.476c-0.173-0.236-0.193-0.536-0.064-0.77c0.13-0.28,0.428-0.45,0.75-0.45h6.118
		c0.343,0,0.643,0.192,0.771,0.47c0.107,0.278,0.063,0.578-0.129,0.812l-5.777,6.463l5.97,6.654
		c0.194,0.236,0.258,0.536,0.129,0.814c-0.129,0.279-0.43,0.47-0.771,0.47L222.514,59.359L222.514,59.359z"/>
	<path fill="#008FD5" d="M234.85,59.359c-0.471,0-0.835-0.342-0.835-0.771V46.906h-4.471c-0.279,0-0.537-0.128-0.687-0.342
		l-1.197-1.669c-0.173-0.215-0.194-0.514-0.064-0.77c0.128-0.279,0.405-0.429,0.727-0.429h14.509c0.279,0,0.536,0.128,0.686,0.321
		l1.199,1.668c0.17,0.236,0.191,0.536,0.063,0.771c-0.15,0.277-0.428,0.449-0.749,0.449h-5.712v11.683
		c0,0.428-0.386,0.771-0.835,0.771H234.85z"/>
	<path fill="#008FD5" d="M175.779,85.051c-0.47,0-1.304-0.064-1.903-0.47c-0.256-0.172-0.834-0.684-0.834-1.628V72.255l-1.199-1.668
		c-0.171-0.215-0.192-0.516-0.063-0.771c0.127-0.256,0.406-0.428,0.727-0.428h3.98c0.473,0,0.836,0.342,0.836,0.771v11.385
		c0,0.192,0,0.213,0.021,0.234c0.086,0.042,0.363,0.064,0.512,0.064h9.182c0.449,0,0.835,0.343,0.835,0.77v1.668
		c0,0.429-0.385,0.77-0.835,0.77h-11.258V85.051z"/>
	<path fill="#008FD5" d="M193.445,85.051c-0.771,0-1.583,0-2.29-0.575c-0.835-0.664-0.835-1.65-0.835-2.119V72.213l-1.177-1.626
		c-0.17-0.236-0.193-0.535-0.064-0.771c0.128-0.278,0.429-0.45,0.729-0.45h13.031c0.279,0,0.536,0.129,0.686,0.343l1.219,1.669
		c0.151,0.215,0.195,0.513,0.065,0.77c-0.149,0.279-0.429,0.449-0.75,0.449h-8.796c-0.126,0-0.447,0-0.575,0.107
		c-0.063,0.044-0.086,0.086-0.086,0.3v2.438h8.004c0.256,0,0.514,0.129,0.662,0.344l1.22,1.668c0.172,0.214,0.192,0.514,0.064,0.771
		c-0.129,0.277-0.428,0.427-0.749,0.427h-9.201v2.933c0,0.085,0.041,0.149,0.041,0.17c0.108,0.045,0.364,0.087,0.813,0.087h7.49
		c0.278,0,0.514,0.107,0.684,0.32l1.2,1.67c0.17,0.234,0.193,0.535,0.064,0.793c-0.129,0.255-0.407,0.425-0.729,0.425h-10.721
		V85.051z"/>
	<path fill="#008FD5" d="M212.455,83.341l-6.119-12.86c-0.107-0.235-0.087-0.493,0.042-0.708c0.149-0.235,0.428-0.385,0.707-0.385
		h2.866c0.322,0,0.622,0.192,0.749,0.471l4.986,11.426l4.001-9.137l-1.111-1.54c-0.173-0.235-0.194-0.536-0.065-0.771
		c0.15-0.278,0.429-0.449,0.75-0.449h5.05c0.279,0,0.556,0.149,0.705,0.385c0.129,0.215,0.15,0.472,0.044,0.708l-6.099,12.86
		c-0.409,0.854-1.306,1.862-3.253,1.862C214.145,85.203,213.053,84.581,212.455,83.341z"/>
	<path fill="#008FD5" d="M230.785,85.051c-0.772,0-1.584,0-2.291-0.575c-0.836-0.664-0.836-1.65-0.836-2.119V72.213l-1.176-1.626
		c-0.171-0.236-0.193-0.535-0.063-0.771c0.128-0.278,0.429-0.45,0.728-0.45h13.032c0.279,0,0.534,0.129,0.685,0.343l1.22,1.669
		c0.15,0.215,0.193,0.513,0.064,0.77c-0.149,0.279-0.428,0.449-0.75,0.449h-8.795c-0.126,0-0.447,0-0.577,0.107
		c-0.064,0.044-0.085,0.086-0.085,0.3v2.438h8.002c0.256,0,0.516,0.129,0.664,0.344l1.22,1.668c0.171,0.214,0.191,0.514,0.065,0.771
		c-0.13,0.277-0.43,0.427-0.751,0.427h-9.201v2.933c0,0.085,0.043,0.149,0.043,0.17c0.107,0.045,0.363,0.087,0.812,0.087h7.489
		c0.278,0,0.515,0.107,0.684,0.32l1.2,1.67c0.171,0.234,0.194,0.535,0.064,0.793c-0.129,0.255-0.406,0.425-0.729,0.425h-10.719
		V85.051z"/>
	<path fill="#008FD5" d="M247.505,85.051c-0.472,0-1.306-0.064-1.905-0.47c-0.256-0.172-0.835-0.684-0.835-1.628V72.255
		l-1.197-1.668c-0.171-0.215-0.194-0.516-0.062-0.771c0.125-0.256,0.405-0.428,0.726-0.428h3.98c0.472,0,0.835,0.342,0.835,0.771
		v11.385c0,0.192,0,0.213,0.021,0.234c0.086,0.042,0.365,0.064,0.514,0.064h9.18c0.449,0,0.836,0.343,0.836,0.77v1.668
		c0,0.429-0.386,0.77-0.836,0.77h-11.256V85.051z"/>
	<path fill="#008FD5" d="M179.524,110.745c-1.689,0-4.129-0.193-5.884-1.861c-1.669-1.604-1.904-3.811-1.904-5.756
		c0-2.098,0.214-4.451,1.839-6.057c1.329-1.327,3.36-1.989,6.014-1.989h5.222c0.256,0,0.516,0.128,0.686,0.342l1.176,1.668
		c0.173,0.215,0.194,0.514,0.064,0.77c-0.149,0.257-0.427,0.43-0.749,0.43h-4.857c-1.842,0-3.295,0.085-4.15,1.175
		c-0.579,0.707-0.856,1.905-0.856,3.617c0,2.292,0.535,3.019,0.706,3.252c0.664,0.836,1.861,1.199,4.13,1.199h4.107
		c0.28,0,0.536,0.128,0.687,0.341l1.198,1.669c0.15,0.214,0.171,0.515,0.044,0.771c-0.128,0.257-0.407,0.429-0.729,0.429h-6.741
		V110.745z"/>
	<path fill="#008FD5" d="M190.661,109.204c-2.183-1.775-2.183-4.602-2.183-6.291c0-1.585,0-4.536,2.183-6.271
		c2.033-1.646,4.985-1.646,7.147-1.646c2.055,0,5.136,0,7.168,1.646c1.904,1.541,2.141,4.175,2.141,6.271
		c0,2.118-0.236,4.729-2.141,6.291c-2.011,1.646-5.113,1.646-7.168,1.646C195.777,110.851,192.672,110.851,190.661,109.204z
		 M193.742,99.212c-0.642,0.661-0.921,1.818-0.921,3.701c0,1.841,0.302,3.062,0.921,3.704c0.879,0.962,2.419,1.047,4.045,1.047
		c1.628,0,3.167-0.085,4.065-1.047c0.621-0.642,0.919-1.863,0.919-3.704c0-2.482-0.514-3.295-0.919-3.701
		c-0.9-0.964-2.567-1.029-4.065-1.029C195.883,98.183,194.557,98.355,193.742,99.212z"/>
	<path fill="#008FD5" d="M227.628,110.361c-0.149,0.235-0.428,0.385-0.728,0.385h-2.739c-0.32,0-0.621-0.171-0.747-0.45l-1.563-3.25
		h-7.702l-1.541,3.25c-0.129,0.279-0.429,0.45-0.749,0.45h-2.762c-0.277,0-0.557-0.149-0.706-0.385
		c-0.128-0.215-0.15-0.493-0.02-0.728l1.261-2.568l-1.111-1.539c-0.195-0.28-0.215-0.644-0.064-0.942
		c0.149-0.32,0.493-0.535,0.878-0.535h1.797l0.257-0.516l2.911-5.712l-1.092-1.519c-0.171-0.237-0.192-0.536-0.062-0.791
		c0.126-0.26,0.427-0.43,0.747-0.43h4.217c1.604,0.021,2.502,0.577,3.188,1.926l6.354,12.625
		C227.78,109.866,227.758,110.146,227.628,110.361z M220.526,104.048l-2.505-5.051c0-0.021-0.021-0.063-0.021-0.086
		c0,0.021-0.021,0.021-0.021,0.042l-2.504,5.095H220.526z"/>
	<path fill="#008FD5" d="M236.436,110.745c-1.69,0-4.131-0.193-5.884-1.861c-1.67-1.604-1.905-3.811-1.905-5.756
		c0-2.098,0.214-4.451,1.84-6.057c1.327-1.327,3.359-1.989,6.013-1.989h5.223c0.255,0,0.514,0.128,0.685,0.342l1.176,1.668
		c0.173,0.215,0.193,0.514,0.065,0.77c-0.149,0.257-0.428,0.43-0.751,0.43h-4.857c-1.84,0-3.294,0.085-4.149,1.175
		c-0.579,0.707-0.856,1.905-0.856,3.617c0,2.292,0.535,3.019,0.706,3.252c0.664,0.836,1.861,1.199,4.13,1.199h4.107
		c0.28,0,0.537,0.128,0.686,0.341l1.199,1.669c0.15,0.214,0.171,0.515,0.044,0.771c-0.129,0.257-0.407,0.429-0.729,0.429h-6.741
		V110.745z"/>
	<path fill="#008FD5" d="M259.663,110.745c-0.448,0-0.813-0.343-0.813-0.771v-5.672h-8.002v5.672c0,0.428-0.364,0.771-0.813,0.771
		h-2.654c-0.449,0-0.812-0.343-0.812-0.771V97.95l-1.199-1.67c-0.17-0.235-0.193-0.535-0.062-0.769
		c0.128-0.28,0.428-0.452,0.728-0.452h3.916c0.534,0,0.898,0.345,0.898,0.771v5.244h8.003v-3.147l-1.198-1.646
		c-0.172-0.235-0.193-0.535-0.063-0.769c0.149-0.28,0.427-0.452,0.747-0.452h3.896c0.534,0,0.897,0.345,0.897,0.771v14.145
		c0,0.428-0.363,0.771-0.812,0.771H259.663L259.663,110.745z"/>
	<path fill="#008FD5" d="M267.166,110.745c-0.475,0-0.837-0.343-0.837-0.771V97.926l-1.178-1.646
		c-0.169-0.234-0.19-0.514-0.062-0.769c0.128-0.28,0.407-0.451,0.728-0.451h3.915c0.515,0,0.879,0.364,0.879,0.792v14.123
		c0,0.428-0.365,0.771-0.814,0.771H267.166z"/>
	<path fill="#008FD5" d="M285.06,109.484l-7.146-9.373v9.864c0,0.428-0.366,0.771-0.814,0.771h-2.546
		c-0.449,0-0.813-0.343-0.813-0.771V97.906l-1.178-1.627c-0.17-0.234-0.192-0.535-0.062-0.769c0.127-0.28,0.426-0.451,0.728-0.451
		l4.258,0.043c1.134,0.107,1.989,0.536,2.568,1.328l7.104,9.308V97.95l-1.199-1.648c-0.146-0.236-0.17-0.535-0.042-0.771
		c0.13-0.278,0.407-0.448,0.729-0.448l3.872-0.022c0.447,0,0.834,0.364,0.834,0.793v12.476c0,1.626-1.156,2.59-3.101,2.59
		C287.264,110.916,286.001,110.745,285.06,109.484z"/>
	<path fill="#008FD5" d="M299.236,110.745c-2.139,0-3.53-0.685-4.344-1.242c-2.183-1.539-2.482-4.043-2.482-6.503
		c0-2.61,0.363-5.479,3.082-6.977c1.155-0.619,2.674-0.964,4.429-0.964h7.253c0.28,0,0.535,0.128,0.686,0.345l1.198,1.667
		c0.171,0.235,0.194,0.534,0.064,0.771c-0.15,0.276-0.427,0.449-0.748,0.449h-7.533c-1.156,0-2.675,0.235-3.403,1.347
		c-0.428,0.643-0.641,1.776-0.641,3.274c0,1.884,0.341,2.869,0.621,3.34c0.533,0.897,1.389,1.283,2.868,1.283h4.234
		c0.279,0,0.43-0.021,0.535-0.107c0.088-0.086,0.107-0.149,0.107-0.384v-1.65l-1.198-1.646c-0.15-0.215-0.17-0.513-0.044-0.77
		c0.129-0.258,0.409-0.428,0.729-0.428h3.916c0.513,0,0.877,0.341,0.877,0.77v5.029c0,0.792-0.32,1.477-0.855,1.861
		c-0.556,0.407-1.413,0.535-1.989,0.535H299.236L299.236,110.745z"/>
</g>
</svg>
